<svg xmlns="http://www.w3.org/2000/svg" width="211" height="178" fill="none" viewBox="0 0 211 178"><path fill="#3D2D33" d="M130.98 120.166a1.31 1.31 0 0 0-.571 1.847c.972 1.623 2.292 3.01 3.931 4.117 3.123 2.11 7.3 3.181 12.413 3.181h.006c11.668 0 18.363-6.627 18.366-18.182l.006-31.61a2.225 2.225 0 0 0-2.226-2.222h-6.546a2.22 2.22 0 0 0-2.133 1.587c-2.486-1.727-5.549-2.622-9.077-2.622h-.003c-5.158 0-9.543 1.993-12.682 5.761-2.998 3.601-4.583 8.521-4.583 14.232 0 5.696 1.588 10.559 4.598 14.068a15.5 15.5 0 0 0 4.153 3.428s1.792.85 2.791 1.232c1.759.582 3.671.881 5.705.884 3.42.041 6.406-.755 8.859-2.334-.266 1.922-.907 3.399-1.912 4.41-1.158 1.164-2.881 1.755-5.119 1.755-4.359 0-6.136-1.34-6.854-2.551-.338-.573-1.029-.827-1.63-.541l-7.486 3.56zm21.14-16.735c-1.367 1.635-3.267 2.497-5.493 2.497-2.193 0-4.072-.862-5.433-2.494-1.475-1.773-2.256-4.3-2.256-7.307 0-2.957.808-5.574 2.271-7.364 1.373-1.68 3.246-2.566 5.421-2.566 4.637 0 7.755 3.992 7.752 9.933 0 3.01-.784 5.534-2.265 7.304zM38.833 62.036a2.22 2.22 0 0 0-2.226-2.223h-6.612c-1.23 0-2.226.993-2.226 2.22v16.992a15 15 0 0 0-1.265-.815c-2.28-1.313-4.856-1.981-7.66-1.981h-.002c-4.925 0-9.374 2.047-12.524 5.761-3.057 3.605-4.742 8.638-4.742 14.167 0 5.615 1.679 10.714 4.727 14.36 3.144 3.756 7.59 5.83 12.518 5.833h.215c2.726 0 5.236-.648 7.458-1.93q.683-.393 1.31-.854c.216 1 1.11 1.749 2.176 1.752h6.612a2.22 2.22 0 0 0 2.226-2.22l.012-51.068zm-18.57 44.25c-2.16 0-4.03-.907-5.41-2.62-1.468-1.825-2.28-4.469-2.28-7.44 0-2.937.809-5.544 2.275-7.343 1.379-1.692 3.252-2.587 5.415-2.587 2.172 0 4.06.898 5.454 2.598 1.48 1.806 2.297 4.41 2.297 7.334 0 2.963-.82 5.604-2.306 7.433-1.397 1.718-3.282 2.625-5.448 2.625zM86.39 103.825c1.212-.579 2.72-.272 3.48.832.834 1.214 2.576 2.294 6.133 2.294 1.798 0 3.318-.381 4.281-1.08.712-.516 1.074-1.166 1.074-1.933 0-.579-.102-1.101-1.373-1.656-1.382-.603-3.488-.925-5.714-1.265-3.13-.477-6.675-1.02-9.508-2.569-3.57-1.948-5.376-5.129-5.376-9.449 0-3.756 1.696-7.086 4.769-9.375 2.97-2.21 7.087-3.38 11.91-3.38h.006c6.205 0 11.117 2.414 13.875 6.507.964 1.432.413 3.39-1.148 4.127l-3.74 1.766c-1.828.865-3.366.373-4.186-.839a3.9 3.9 0 0 0-.783-.85c-1.05-.844-2.642-1.292-4.605-1.292-3.096 0-5.095 1.209-5.095 3.08 0 1.151.952 1.78 6.858 2.697 3.183.495 6.794 1.056 9.696 2.667 3.641 2.02 5.484 5.305 5.484 9.765 0 3.754-1.706 7.045-4.799 9.268-2.941 2.112-7.049 3.228-11.877 3.228h-.006c-4.979 0-9.215-1.226-12.258-3.545a13 13 0 0 1-2.653-2.7c-1.023-1.411-.47-3.413 1.107-4.168l4.454-2.133zM179.02 113.134V96.521c.006-3.01.804-5.681 2.252-7.525 1.371-1.742 3.252-2.664 5.442-2.664 1.721 0 3.046.56 3.944 1.662.966 1.187 1.477 3.019 1.477 5.298v19.845a2.22 2.22 0 0 0 2.223 2.222h6.678a2.22 2.22 0 0 0 2.226-2.219V93.102c.006-5.335-1.224-9.489-3.647-12.35-2.519-2.974-6.202-4.481-10.953-4.481h-.006c-3.081 0-5.864.734-8.269 2.184q-.71.425-1.364.93A2.226 2.226 0 0 0 176.8 77.3h-6.612a2.223 2.223 0 0 0-2.226 2.22l-.009 33.614c0 1.226.996 2.222 2.226 2.222h6.612c.589 0 1.158-.232 1.573-.65.419-.418.653-.982.653-1.569zM20.639 147.093c3.264 0 5.822 1.925 6.366 4.789a2.23 2.23 0 0 0 2.187 1.808h6.546c.646 0 1.262-.28 1.687-.77a2.22 2.22 0 0 0 .518-1.775 16.26 16.26 0 0 0-5.649-10.105c-3.135-2.623-7.1-4.01-11.461-4.013h-.006c-5.466 0-10.411 2.011-13.927 5.666-3.488 3.625-5.409 8.715-5.412 14.327 0 5.642 1.915 10.762 5.397 14.414 3.516 3.688 8.464 5.717 13.936 5.72h.003c8.838 0 15.874-5.747 17.11-13.976a2.22 2.22 0 0 0-2.202-2.551h-6.546c-1.08 0-2.008.776-2.193 1.838-.494 2.811-2.992 4.625-6.36 4.625-2.253 0-4.207-.91-5.649-2.632-1.526-1.82-2.366-4.46-2.363-7.432 0-2.936.837-5.538 2.36-7.334 1.442-1.698 3.396-2.596 5.655-2.596zM99.087 137.047h-.003c-3.085 0-5.867.734-8.272 2.184q-.71.426-1.365.931a2.225 2.225 0 0 0-2.22-2.082h-6.611a2.22 2.22 0 0 0-2.226 2.22l-.01 33.613c0 1.226.997 2.223 2.227 2.223h6.612a2.224 2.224 0 0 0 2.225-2.22v-16.613c.003-3.007.802-5.681 2.253-7.524 1.37-1.743 3.252-2.662 5.44-2.662 1.72 0 3.045.558 3.942 1.662.967 1.188 1.478 3.019 1.478 5.299l-.006 19.844c0 .588.234 1.155.652 1.57.419.417.985.65 1.574.65h6.678a2.223 2.223 0 0 0 2.226-2.22l.006-20.038c0-5.335-1.227-9.488-3.65-12.349-2.519-2.972-6.202-4.482-10.953-4.485zM201.651 148.299a2.223 2.223 0 0 0 2.226-2.22v-6.14c0-1.227-.997-2.22-2.226-2.223h-.009c-3.683 0-6.848.65-9.409 1.93q-.98.488-1.837 1.098v-.42a2.227 2.227 0 0 0-2.226-2.22h-6.289a2.223 2.223 0 0 0-2.226 2.22l-.009 33.613c0 .588.234 1.155.653 1.57.419.417.984.65 1.573.65h6.289c1.23 0 2.226-.994 2.226-2.22v-18.94c.006-2.139.888-3.727 2.704-4.851 1.951-1.209 4.907-1.844 8.551-1.844h.006zM209.647 167.442l-3.18-3.172a3.726 3.726 0 0 0-5.253 0l-3.181 3.172a3.7 3.7 0 0 0 0 5.239l3.181 3.172a3.7 3.7 0 0 0 2.626 1.083c.952 0 1.903-.361 2.627-1.083l3.18-3.172a3.7 3.7 0 0 0 0-5.239M68.363 103.652c-.88-.418-1.897-.126-2.513.629a5.2 5.2 0 0 1-1.026.949c-.805.57-2.199 1.25-4.281 1.25-2.4 0-4.32-.734-5.705-2.184-.916-.955-1.586-2.217-1.987-3.72l22.86.006c1.23 0 2.226-.994 2.226-2.22v-2.587c0-5.863-1.76-10.834-5.098-14.378-3.138-3.333-7.503-5.17-12.293-5.17h-.006c-5.442 0-10.379 2.01-13.9 5.662-3.506 3.634-5.436 8.724-5.439 14.328 0 5.636 1.927 10.755 5.424 14.413 3.525 3.685 8.464 5.717 13.909 5.717h.006c4.305 0 8.236-1.25 11.366-3.616a15.7 15.7 0 0 0 3.138-3.181c.78-1.059.356-2.578-.838-3.141l-5.849-2.763zm-8.015-17.36c1.795 0 3.357.663 4.512 1.913.742.803 1.298 1.838 1.64 3.02H53.083c1.598-4.228 5.104-4.932 7.264-4.932M66.803 164.485c-.88-.418-1.897-.125-2.513.629a5.2 5.2 0 0 1-1.027.949c-.804.57-2.198 1.25-4.28 1.25-2.4 0-4.32-.734-5.706-2.184-.915-.954-1.586-2.216-1.986-3.72l22.86.006c1.23 0 2.225-.994 2.225-2.22v-2.587c0-5.863-1.759-10.833-5.098-14.378-3.138-3.333-7.503-5.171-12.293-5.171h-.006c-5.442 0-10.378 2.011-13.9 5.663-3.506 3.634-5.435 8.724-5.438 14.328 0 5.636 1.926 10.756 5.424 14.414 3.524 3.684 8.463 5.716 13.908 5.716h.006c4.306 0 8.237-1.25 11.366-3.616a15.7 15.7 0 0 0 3.138-3.18c.781-1.06.356-2.578-.837-3.142l-5.85-2.763zm-8.015-17.359c1.795 0 3.357.662 4.511 1.913.742.802 1.299 1.838 1.64 3.019H51.524c1.597-4.228 5.104-4.932 7.264-4.932M168.07 164.485c-.879-.418-1.896-.125-2.513.629a5.2 5.2 0 0 1-1.026.949c-.805.57-2.199 1.25-4.281 1.25-2.399 0-4.32-.734-5.705-2.184-.916-.954-1.586-2.216-1.987-3.72l22.86.006c1.23 0 2.226-.994 2.226-2.22v-2.587c0-5.863-1.759-10.833-5.098-14.378-3.138-3.333-7.503-5.171-12.293-5.171h-.006c-5.442 0-10.378 2.011-13.9 5.663-3.506 3.634-5.436 8.724-5.439 14.328 0 5.636 1.927 10.756 5.424 14.414 3.525 3.684 8.464 5.716 13.909 5.716h.006c4.305 0 8.236-1.25 11.366-3.616a15.7 15.7 0 0 0 3.138-3.18c.781-1.06.356-2.578-.838-3.142l-5.849-2.763zm-8.012-17.359c1.795 0 3.357.662 4.512 1.913.742.802 1.298 1.838 1.639 3.019h-13.415c1.598-4.228 5.104-4.932 7.264-4.932M116.815 77.285c-.586 0-1.158.233-1.574.65a2.21 2.21 0 0 0-.652 1.57l-.009 33.614c0 1.226.996 2.222 2.226 2.222h6.546a2.22 2.22 0 0 0 2.226-2.219l.009-33.614c0-1.226-.997-2.22-2.226-2.223zM120.058 76.62a6.88 6.88 0 0 0 4.838-1.967 6.81 6.81 0 0 0 2.055-4.905c0-1.847-.703-3.574-1.98-4.86-1.29-1.3-3.034-2.017-4.913-2.017-1.872 0-3.623.71-4.93 2a6.8 6.8 0 0 0-2.028 4.874c0 1.88.721 3.623 2.034 4.908 1.298 1.271 3.046 1.97 4.921 1.97zM29.982 55.508h6.611c1.23 0 2.226-.994 2.226-2.22V36.48c.006-3.01.8-5.648 2.235-7.432 1.352-1.677 3.24-2.563 5.457-2.563 1.744 0 3.079.534 3.964 1.59.955 1.134 1.457 2.924 1.457 5.177V53.29a2.22 2.22 0 0 0 2.223 2.223h6.678a2.22 2.22 0 0 0 2.226-2.22V32.996c.006-5.299-1.23-9.407-3.662-12.218-2.507-2.891-6.187-4.356-10.935-4.359h-.006c-3.73 0-6.98 1.023-9.628 3.005V2.223A2.2 2.2 0 0 0 38.18.65 2.23 2.23 0 0 0 36.605 0h-6.611c-1.23 0-2.226.994-2.226 2.22l-.012 51.065a2.227 2.227 0 0 0 2.226 2.22zM92.03 43.854c-.88-.418-1.898-.126-2.514.63a5.2 5.2 0 0 1-1.026.948c-.805.57-2.199 1.25-4.281 1.25-2.4 0-4.32-.734-5.705-2.184-.916-.955-1.586-2.217-1.987-3.72l22.86.005c1.23 0 2.226-.993 2.226-2.22v-2.586c0-5.863-1.76-10.834-5.098-14.378-3.138-3.333-7.503-5.171-12.293-5.171h-.006c-5.442 0-10.379 2.011-13.9 5.663-3.506 3.634-5.436 8.724-5.439 14.327 0 5.636 1.927 10.756 5.424 14.414 3.525 3.685 8.464 5.717 13.909 5.717h.006c4.305 0 8.236-1.25 11.366-3.616a15.7 15.7 0 0 0 3.138-3.18c.78-1.06.356-2.579-.838-3.142l-5.849-2.763zm-8.013-17.36c1.796 0 3.357.663 4.512 1.913.742.803 1.298 1.838 1.64 3.02H76.753c1.598-4.228 5.104-4.932 7.264-4.932M5.559 27.706v16.503c-.09 4.299.825 7.187 2.872 9.088 2.064 1.912 4.993 2.47 8.437 2.47 1.78 0 3.697-.15 5.705-.337a2.225 2.225 0 0 0 2.02-2.21v-5.753a2.22 2.22 0 0 0-.713-1.63 2.24 2.24 0 0 0-1.681-.587c-1.978.149-3.204.19-4.099.14-.853-.048-1.152-.173-1.227-.212-.254-.45-.25-2.44-.25-3.404V27.706h7.434a2.22 2.22 0 0 0 2.226-2.22v-5.818c0-1.226-.997-2.22-2.226-2.223h-7.429v-6.83a2.22 2.22 0 0 0-1.038-1.879 2.24 2.24 0 0 0-2.148-.125L6.83 11.764a2.22 2.22 0 0 0-1.265 2.002v3.673H2.232A2.235 2.235 0 0 0 0 19.665v5.818a2.22 2.22 0 0 0 2.223 2.22h3.33zM120.422 148.346v16.503c-.09 4.299.826 7.187 2.872 9.088 2.064 1.913 4.993 2.47 8.437 2.47 1.78 0 3.697-.149 5.705-.337a2.224 2.224 0 0 0 2.019-2.211v-5.752c0-.618-.257-1.208-.712-1.629a2.24 2.24 0 0 0-1.681-.588c-1.978.149-3.204.191-4.099.14-.852-.047-1.152-.173-1.226-.211-.255-.451-.252-2.441-.252-3.405v-14.068h7.435a2.22 2.22 0 0 0 2.226-2.219v-5.819a2.227 2.227 0 0 0-2.226-2.222h-7.429v-6.83a2.22 2.22 0 0 0-1.038-1.88 2.24 2.24 0 0 0-2.148-.125l-6.612 3.154a2.22 2.22 0 0 0-1.265 2.002v3.673h-3.333c-1.23 0-2.226.993-2.226 2.219v5.819a2.22 2.22 0 0 0 2.223 2.219h3.33z"/></svg>